<svg xmlns="http://www.w3.org/2000/svg" width="375" viewBox="0 0 375 375" height="375" version="1.0"><defs><clipPath id="a"><path d="M 0.09375 46.738281 L 372.816406 46.738281 L 372.816406 307.738281 L 0.09375 307.738281 Z M 0.09375 46.738281"/></clipPath></defs><path fill="#4F397A" d="M 270.65625 63.601562 C 275.890625 61.335938 278.734375 52.664062 286.222656 54.578125 C 292.78125 56.253906 289.566406 69.4375 290.585938 75.425781 C 295.039062 74.523438 297.355469 67.578125 303.035156 71.691406 C 304.453125 77.332031 301.386719 82.917969 299.613281 87.871094 C 298.707031 90.390625 297.855469 93.152344 296.808594 95.648438 C 295.882812 97.859375 295.039062 100.878906 292.761719 101.871094 C 292.832031 92.363281 279.875 95.875 272.210938 94.09375 C 270.058594 89.503906 268.550781 84.273438 265.363281 80.714844 C 261.46875 83.875 259.964844 89.425781 258.824219 95.335938 C 255.046875 95.980469 252.238281 98.730469 248.859375 100.316406 C 245.710938 101.796875 241.585938 101.953125 237.964844 103.117188 C 221.34375 108.445312 206.25 115.964844 188.460938 120.851562 C 183.125 122.316406 177.90625 123.558594 172.582031 125.207031 C 170.476562 125.859375 169.117188 127.445312 166.664062 127.695312 C 153.714844 129.019531 140.410156 130 126.5 131.429688 C 126.179688 125.445312 133.222656 122.863281 136.464844 127.386719 C 141.144531 124.15625 144.722656 112.265625 153.898438 114.628906 C 155.664062 115.082031 155.472656 116.632812 157.636719 117.117188 C 160.113281 113.046875 160.019531 106.496094 163.863281 102.183594 C 167.09375 98.554688 173.023438 95.320312 179.117188 97.203125 C 180.972656 97.777344 181.1875 99.394531 183.476562 100.003906 C 186.324219 96.835938 185.773438 91.550781 187.214844 86.9375 C 189.285156 80.289062 193.136719 72.605469 201.222656 72.003906 C 202.660156 71.898438 206.078125 72.039062 208.074219 73.246094 C 210.171875 74.515625 210.203125 77.179688 211.8125 79.472656 C 214.375 79.078125 214.570312 75.855469 215.234375 73.871094 C 217.5 67.128906 224.269531 55.464844 235.160156 59.867188 C 238.875 61.371094 239.742188 65.476562 241.390625 69.203125 C 244.855469 67.847656 245.246094 62.578125 246.992188 59.246094 C 249.210938 55.011719 255.128906 48.328125 262.558594 50.535156 C 265.457031 51.394531 268.910156 54.785156 269.722656 58 C 270.210938 59.945312 269.183594 61.871094 270.65625 63.601562" fill-rule="evenodd"/><path fill="#F9CFF3" d="M 273.457031 109.648438 C 266.785156 110.433594 261.425781 121.074219 267.542969 125.832031 C 270.050781 127.777344 279.8125 128.574219 279.375 122.71875 C 276.8125 122.371094 272.800781 125.429688 269.410156 123.339844 C 268.503906 121.722656 267.667969 120.269531 267.855469 118.675781 C 268.324219 114.601562 273.957031 112.96875 277.507812 111.828125 C 277.605469 109.140625 274.699219 109.503906 273.457031 109.648438 Z M 260.691406 98.140625 C 261.929688 93.871094 262.792969 89.289062 264.738281 85.070312 C 267.71875 87.800781 268.769531 92.449219 270.34375 96.582031 C 272.667969 97.527344 292.660156 95.808594 290.582031 101.5625 C 290.035156 103.070312 289.003906 102.207031 287.46875 103.117188 C 283.9375 108.21875 285.144531 117.53125 289.960938 120.230469 C 290.957031 121.070312 292.027344 119.988281 293.382812 120.230469 C 296.003906 142.398438 298.671875 164.519531 300.234375 187.746094 C 293.746094 188.316406 287.664062 189.289062 282.488281 191.167969 C 274.496094 177.996094 269.996094 161.335938 262.558594 147.609375 C 260.242188 148.371094 261.046875 149.433594 260.382812 151.03125 C 244.828125 163.804688 226.765625 174.066406 209.628906 185.257812 C 207.28125 185.304688 206.523438 186.074219 204.648438 187.746094 C 204.792969 188.539062 206.832031 187.429688 206.207031 188.992188 C 205.515625 225.875 214.554688 253.042969 218.039062 285.753906 C 215.65625 286.488281 213.109375 287.054688 210.253906 287.3125 C 204.550781 268.257812 202.578125 243.75 198.421875 222.90625 C 197.878906 220.1875 197.691406 216.785156 195.621094 214.816406 C 193.496094 217.042969 194.375 220.6875 194.375 223.527344 C 194.375 245.648438 196.097656 266.699219 196.554688 289.179688 C 194.019531 288.722656 190.371094 288.722656 187.835938 289.179688 C 185.050781 268.417969 186.605469 243.324219 181.296875 225.082031 C 178.660156 226.453125 175.6875 225.671875 172.269531 225.394531 C 153.59375 223.882812 131.550781 227.863281 112.488281 225.707031 C 111.910156 250.5625 119.398438 270.023438 123.699219 291.042969 C 120 290.769531 117.746094 291.941406 114.046875 291.667969 C 108.707031 275.578125 105.191406 255.910156 102.214844 236.90625 C 101.824219 234.40625 101.863281 231.546875 100.347656 229.4375 C 97.707031 231.875 99.515625 237.308594 99.722656 240.640625 C 100.765625 257.386719 100.984375 276.960938 99.722656 293.84375 C 96.144531 293.792969 92.992188 293.3125 90.070312 292.601562 C 89.613281 274.550781 90.121094 256.65625 89.761719 238.460938 C 89.617188 231.242188 89.117188 223.933594 89.449219 217.304688 C 90.050781 205.273438 88.707031 192.6875 87.894531 180.902344 C 86.8125 165.230469 83.910156 147.585938 88.203125 134.851562 C 101.621094 135.804688 116.25 135.582031 130.546875 133.917969 C 142.808594 132.492188 154.902344 132.210938 165.417969 130.496094 C 174.726562 128.980469 184.804688 126.417969 191.570312 122.71875 C 211.445312 117.996094 226.34375 108.304688 246.371094 103.738281 C 247.09375 103.109375 247.085938 103.863281 246.683594 104.359375 C 251.464844 102.402344 254.101562 98.296875 260.691406 98.140625" fill-rule="evenodd"/><path fill="#FFFFF8" d="M 356.589844 95.960938 C 357.003906 96.824219 354.925781 96.726562 353.472656 97.203125 C 336.21875 102.910156 317.847656 108.578125 300.234375 114.941406 C 297.878906 115.789062 294.078125 117.964844 292.140625 117.738281 C 287.496094 117.199219 286.996094 108.367188 289.648438 104.984375 C 310.984375 100.996094 334.183594 98.875 356.589844 95.960938" fill-rule="evenodd"/><path d="M 277.507812 111.828125 C 273.957031 112.96875 268.324219 114.601562 267.855469 118.671875 C 267.671875 120.265625 268.503906 121.722656 269.410156 123.339844 C 272.800781 125.429688 276.8125 122.371094 279.375 122.71875 C 279.8125 128.574219 270.050781 127.777344 267.542969 125.828125 C 261.425781 121.074219 266.785156 110.433594 273.457031 109.648438 C 274.699219 109.503906 277.601562 109.140625 277.507812 111.828125" fill-rule="evenodd"/><path fill="#4F397A" d="M 85.402344 134.542969 C 84.933594 137.910156 83.703125 140.515625 83.222656 143.875 C 65.503906 153.464844 55.441406 173.238281 52.710938 198.015625 C 51.917969 205.183594 51.671875 212.695312 49.90625 220.105469 C 43.34375 247.679688 26.820312 263.933594 4.449219 274.867188 C 2.363281 269.070312 7.054688 267.5 10.367188 265.53125 C 27.078125 255.59375 37.308594 245.179688 43.679688 223.527344 C 50.738281 199.546875 48.679688 170.789062 59.25 153.210938 C 61.46875 149.515625 66.933594 142.972656 70.457031 140.140625 C 74.351562 137.007812 80.226562 133.921875 85.402344 134.542969" fill-rule="evenodd"/><path fill="#5E4893" d="M 82.910156 146.363281 C 83.441406 147.59375 83.253906 149.546875 83.535156 151.03125 C 80.011719 153.78125 75.933594 156.113281 72.949219 159.121094 C 61.058594 171.097656 64.628906 197.164062 61.117188 218.238281 C 60.035156 224.726562 57.773438 230.558594 55.203125 235.664062 C 50.082031 245.804688 42.273438 255.621094 34.652344 262.421875 C 30.726562 265.921875 26.371094 269.734375 21.574219 273 C 17.046875 276.082031 12.421875 279.707031 6.628906 280.777344 C 6.015625 279.941406 5.753906 278.75 5.074219 277.976562 C 10.121094 273.921875 15.832031 271.761719 20.640625 268.332031 C 35.003906 258.085938 45.476562 243.546875 51.152344 224.148438 C 55.25 210.15625 54.050781 193.589844 58.003906 180.902344 C 59.886719 174.851562 62.847656 169.449219 66.097656 164.101562 C 70.378906 157.058594 75.113281 150.800781 82.289062 146.988281 C 82.367188 146.648438 82.90625 146.777344 82.910156 146.363281" fill-rule="evenodd"/><path fill="#4F397A" d="M 57.070312 239.085938 C 56.027344 249.84375 55.039062 260.246094 47.726562 265.222656 C 46.136719 266.300781 43.851562 266.992188 41.8125 267.710938 C 40.058594 268.324219 36.503906 268.921875 35.585938 269.886719 C 34.75 270.765625 34.730469 273.125 34.027344 275.175781 C 33.238281 277.492188 32.089844 279.914062 30.605469 281.398438 C 25.851562 286.148438 14.492188 287.785156 9.433594 282.332031 C 23.421875 275.984375 34.574219 266.960938 43.992188 255.574219 C 51.851562 246.070312 59.191406 234.851562 62.363281 222.90625 C 64.949219 213.152344 64.191406 202.210938 64.851562 192.101562 C 65.472656 182.632812 66.597656 172.796875 71.078125 165.34375 C 74.074219 160.367188 79.292969 157.679688 83.222656 153.832031 C 85.980469 161.191406 80.027344 163.238281 77.617188 169.390625 C 72.785156 181.71875 74.117188 199.066406 73.257812 215.75 C 72.996094 220.894531 72.714844 227.402344 71.078125 230.371094 C 68.261719 235.488281 61.183594 236.261719 57.070312 239.085938" fill-rule="evenodd"/><path fill="#D1AAAA" d="M 102.835938 257.128906 C 103.449219 257.558594 103.007812 259.035156 103.460938 259.617188 C 102.234375 259.808594 103.09375 257.910156 102.835938 257.128906" fill-rule="evenodd"/><path fill="#5E4893" d="M 218.660156 288.554688 C 219.023438 291.925781 219.898438 294.785156 219.90625 298.511719 C 217.8125 299.21875 214.65625 298.867188 212.433594 299.445312 C 211.898438 296.453125 211.730469 293.09375 211.1875 290.109375 C 214.378906 290.292969 216.054688 288.957031 218.660156 288.554688" fill-rule="evenodd"/><path fill="#5E4893" d="M 196.867188 292.289062 C 196.625 296.160156 197.328125 299.085938 197.175781 302.867188 C 194.535156 302.503906 191.453125 302.574219 188.769531 302.246094 C 188.863281 297.570312 188.3125 296.953125 188.460938 291.976562 C 191.824219 292.179688 194.269531 291.375 196.867188 292.289062" fill-rule="evenodd"/><path fill="#5E4893" d="M 124.632812 293.53125 C 124.832031 297.066406 126.074219 299.5625 126.1875 303.179688 C 123.59375 303.386719 120.171875 302.765625 118.09375 303.492188 C 116.414062 301.332031 116.234375 297.675781 115.292969 294.777344 C 118.414062 294.371094 121.292969 293.722656 124.632812 293.53125" fill-rule="evenodd"/><path fill="#5E4893" d="M 90.070312 296.023438 C 93.742188 295.980469 96.519531 296.6875 99.722656 296.335938 C 99.621094 298.71875 99.238281 300.824219 99.414062 303.492188 C 96.738281 304.40625 94.214844 303.570312 91.316406 304.113281 C 90.226562 302.09375 90.984375 298.226562 90.070312 296.023438" fill-rule="evenodd"/><g clip-path="url(#a)"><path d="M 91.316406 304.113281 C 94.214844 303.570312 96.738281 304.40625 99.414062 303.492188 C 99.238281 300.824219 99.621094 298.71875 99.722656 296.335938 C 96.519531 296.6875 93.746094 295.980469 90.074219 296.023438 C 90.984375 298.226562 90.226562 302.09375 91.316406 304.113281 Z M 115.292969 294.777344 C 116.234375 297.675781 116.414062 301.332031 118.09375 303.492188 C 120.171875 302.765625 123.59375 303.386719 126.1875 303.179688 C 126.074219 299.5625 124.832031 297.066406 124.632812 293.53125 C 121.292969 293.722656 118.414062 294.371094 115.292969 294.777344 Z M 188.460938 291.980469 C 188.3125 296.953125 188.863281 297.570312 188.769531 302.246094 C 191.449219 302.574219 194.53125 302.503906 197.175781 302.867188 C 197.328125 299.085938 196.625 296.160156 196.867188 292.289062 C 194.269531 291.375 191.824219 292.179688 188.460938 291.980469 Z M 211.1875 290.109375 C 211.730469 293.09375 211.898438 296.453125 212.433594 299.445312 C 214.65625 298.867188 217.8125 299.21875 219.90625 298.511719 C 219.898438 294.785156 219.023438 291.925781 218.660156 288.554688 C 216.054688 288.957031 214.378906 290.292969 211.1875 290.109375 Z M 103.460938 259.617188 C 103.007812 259.035156 103.449219 257.558594 102.835938 257.128906 C 103.09375 257.910156 102.234375 259.808594 103.460938 259.617188 Z M 71.082031 230.371094 C 72.714844 227.402344 72.996094 220.894531 73.257812 215.75 C 74.117188 199.066406 72.785156 181.71875 77.617188 169.386719 C 80.027344 163.238281 85.980469 161.191406 83.222656 153.832031 C 79.292969 157.679688 74.074219 160.367188 71.082031 165.34375 C 66.597656 172.796875 65.472656 182.632812 64.851562 192.101562 C 64.191406 202.207031 64.949219 213.152344 62.363281 222.90625 C 59.191406 234.851562 51.851562 246.070312 43.992188 255.574219 C 34.574219 266.960938 23.421875 275.984375 9.433594 282.332031 C 14.492188 287.785156 25.851562 286.148438 30.605469 281.398438 C 32.089844 279.914062 33.238281 277.492188 34.027344 275.175781 C 34.730469 273.125 34.75 270.765625 35.585938 269.886719 C 36.503906 268.921875 40.058594 268.324219 41.8125 267.710938 C 43.851562 266.992188 46.136719 266.300781 47.726562 265.21875 C 55.039062 260.246094 56.027344 249.84375 57.070312 239.085938 C 61.183594 236.261719 68.261719 235.488281 71.082031 230.371094 Z M 82.289062 146.988281 C 75.113281 150.800781 70.378906 157.058594 66.097656 164.097656 C 62.847656 169.449219 59.886719 174.851562 58.003906 180.902344 C 54.054688 193.589844 55.25 210.15625 51.152344 224.148438 C 45.476562 243.546875 35.003906 258.085938 20.640625 268.332031 C 15.832031 271.761719 10.121094 273.921875 5.074219 277.976562 C 5.753906 278.75 6.015625 279.941406 6.628906 280.777344 C 12.421875 279.707031 17.046875 276.082031 21.574219 273 C 26.371094 269.734375 30.726562 265.921875 34.652344 262.421875 C 42.273438 255.621094 50.082031 245.804688 55.203125 235.664062 C 57.777344 230.558594 60.035156 224.726562 61.117188 218.238281 C 64.628906 197.164062 61.058594 171.097656 72.949219 159.121094 C 75.933594 156.113281 80.011719 153.78125 83.535156 151.03125 C 83.257812 149.546875 83.441406 147.597656 82.910156 146.363281 C 82.90625 146.777344 82.367188 146.648438 82.289062 146.988281 Z M 70.457031 140.140625 C 66.933594 142.972656 61.46875 149.515625 59.25 153.210938 C 48.679688 170.789062 50.738281 199.546875 43.679688 223.527344 C 37.308594 245.179688 27.078125 255.59375 10.367188 265.53125 C 7.054688 267.5 2.363281 269.070312 4.449219 274.867188 C 26.820312 263.933594 43.34375 247.679688 49.910156 220.105469 C 51.671875 212.695312 51.917969 205.183594 52.710938 198.015625 C 55.441406 173.234375 65.503906 153.464844 83.222656 143.875 C 83.703125 140.515625 84.933594 137.910156 85.402344 134.542969 C 80.226562 133.917969 74.351562 137.007812 70.457031 140.140625 Z M 289.648438 104.980469 C 287 108.363281 287.5 117.199219 292.140625 117.738281 C 294.078125 117.964844 297.882812 115.789062 300.234375 114.9375 C 317.847656 108.578125 336.21875 102.910156 353.476562 97.203125 C 354.925781 96.722656 357.003906 96.824219 356.589844 95.960938 C 334.183594 98.875 310.984375 100.996094 289.648438 104.980469 Z M 246.683594 104.359375 C 247.085938 103.863281 247.09375 103.109375 246.371094 103.738281 C 226.34375 108.304688 211.445312 117.996094 191.574219 122.71875 C 184.804688 126.414062 174.726562 128.980469 165.417969 130.496094 C 154.902344 132.210938 142.808594 132.492188 130.550781 133.917969 C 116.25 135.582031 101.621094 135.804688 88.203125 134.851562 C 83.910156 147.585938 86.8125 165.230469 87.894531 180.902344 C 88.707031 192.6875 90.050781 205.273438 89.449219 217.304688 C 89.121094 223.933594 89.617188 231.242188 89.761719 238.460938 C 90.121094 256.65625 89.613281 274.550781 90.074219 292.601562 C 92.992188 293.3125 96.144531 293.792969 99.722656 293.84375 C 100.984375 276.960938 100.765625 257.386719 99.722656 240.640625 C 99.515625 237.308594 97.707031 231.875 100.347656 229.4375 C 101.863281 231.546875 101.824219 234.40625 102.214844 236.90625 C 105.191406 255.910156 108.707031 275.578125 114.046875 291.667969 C 117.746094 291.941406 120 290.769531 123.699219 291.042969 C 119.398438 270.023438 111.914062 250.5625 112.488281 225.703125 C 131.550781 227.863281 153.59375 223.882812 172.269531 225.394531 C 175.691406 225.671875 178.660156 226.453125 181.300781 225.082031 C 186.605469 243.324219 185.050781 268.417969 187.835938 289.179688 C 190.371094 288.722656 194.019531 288.722656 196.554688 289.179688 C 196.097656 266.695312 194.375 245.648438 194.375 223.527344 C 194.375 220.6875 193.496094 217.042969 195.621094 214.816406 C 197.691406 216.785156 197.882812 220.183594 198.421875 222.90625 C 202.578125 243.75 204.550781 268.257812 210.253906 287.3125 C 213.109375 287.054688 215.660156 286.488281 218.039062 285.753906 C 214.554688 253.042969 205.519531 225.875 206.207031 188.992188 C 206.835938 187.429688 204.792969 188.539062 204.648438 187.746094 C 206.523438 186.070312 207.28125 185.304688 209.632812 185.257812 C 226.765625 174.066406 244.828125 163.804688 260.382812 151.03125 C 261.050781 149.433594 260.242188 148.371094 262.558594 147.609375 C 270 161.335938 274.496094 177.996094 282.488281 191.167969 C 287.664062 189.289062 293.75 188.316406 300.234375 187.746094 C 298.671875 164.519531 296.003906 142.398438 293.386719 120.230469 C 292.027344 119.988281 290.957031 121.070312 289.960938 120.230469 C 285.144531 117.527344 283.9375 108.214844 287.472656 103.117188 C 289.003906 102.203125 290.035156 103.070312 290.582031 101.558594 C 292.660156 95.804688 272.667969 97.527344 270.347656 96.582031 C 268.773438 92.449219 267.71875 87.796875 264.742188 85.070312 C 262.796875 89.289062 261.929688 93.871094 260.695312 98.136719 C 254.105469 98.292969 251.46875 102.402344 246.683594 104.359375 Z M 269.722656 58 C 268.910156 54.78125 265.457031 51.390625 262.558594 50.53125 C 255.128906 48.328125 249.210938 55.011719 246.996094 59.246094 C 245.246094 62.582031 244.855469 67.847656 241.390625 69.203125 C 239.742188 65.476562 238.878906 61.371094 235.164062 59.867188 C 224.269531 55.460938 217.5 67.128906 215.238281 73.867188 C 214.570312 75.851562 214.375 79.078125 211.8125 79.46875 C 210.203125 77.179688 210.175781 74.515625 208.074219 73.246094 C 206.078125 72.039062 202.660156 71.894531 201.226562 72 C 193.136719 72.605469 189.289062 80.289062 187.214844 86.9375 C 185.777344 91.546875 186.328125 96.835938 183.476562 100.003906 C 181.1875 99.394531 180.972656 97.777344 179.117188 97.203125 C 173.023438 95.320312 167.09375 98.554688 163.863281 102.183594 C 160.019531 106.496094 160.113281 113.050781 157.636719 117.117188 C 155.472656 116.632812 155.664062 115.082031 153.898438 114.628906 C 144.722656 112.265625 141.144531 124.15625 136.464844 127.386719 C 133.222656 122.863281 126.179688 125.445312 126.5 131.429688 C 140.414062 130 153.714844 129.019531 166.664062 127.695312 C 169.117188 127.445312 170.476562 125.859375 172.582031 125.207031 C 177.910156 123.554688 183.125 122.316406 188.460938 120.851562 C 206.25 115.964844 221.34375 108.445312 237.964844 103.117188 C 241.585938 101.953125 245.710938 101.796875 248.863281 100.316406 C 252.238281 98.730469 255.046875 95.980469 258.824219 95.335938 C 259.964844 89.425781 261.46875 83.875 265.363281 80.714844 C 268.550781 84.273438 270.058594 89.503906 272.214844 94.09375 C 279.875 95.875 292.832031 92.363281 292.761719 101.871094 C 295.042969 100.878906 295.882812 97.859375 296.8125 95.648438 C 297.859375 93.152344 298.707031 90.390625 299.613281 87.871094 C 301.386719 82.917969 304.453125 77.328125 303.039062 71.691406 C 297.359375 67.578125 295.039062 74.523438 290.582031 75.421875 C 289.566406 69.4375 292.78125 56.25 286.226562 54.578125 C 278.734375 52.667969 275.894531 61.335938 270.65625 63.601562 C 269.183594 61.871094 270.214844 59.945312 269.722656 58 Z M 272.835938 57.066406 C 276.785156 54.328125 281.527344 49.242188 287.78125 51.464844 C 293.136719 53.371094 294.042969 61.011719 294.007812 68.890625 C 300.617188 65.058594 308.367188 68.320312 306.460938 78.226562 C 305.058594 85.515625 300.085938 94.96875 298.367188 100.625 C 322.929688 97.6875 347.78125 93.378906 372.78125 91.914062 C 371.625 95.101562 367.441406 95.933594 364.6875 96.894531 C 342.839844 104.484375 318.207031 110.578125 296.8125 118.671875 C 298.929688 140.617188 302.894531 165.070312 303.351562 188.679688 C 301.417969 192.691406 296.082031 191.589844 291.515625 192.414062 C 288.1875 193.015625 284.644531 195.066406 280.933594 194.28125 C 273.015625 182.691406 267.792969 168.414062 262.25 154.453125 C 246.328125 166.058594 228.828125 178.84375 209.632812 188.367188 C 209.105469 230.691406 220.855469 262.402344 223.332031 300.691406 C 220.734375 302.882812 214.433594 302.976562 210.253906 302.558594 C 208.015625 299.996094 208.652344 295.820312 208.074219 292.601562 C 206.636719 284.605469 203.558594 276.753906 202.160156 268.332031 C 200.738281 259.78125 199.730469 251.273438 198.421875 242.195312 C 198.652344 257.199219 199.527344 273.957031 200.292969 290.109375 C 200.539062 295.394531 201.371094 300.949219 199.667969 305.667969 C 195.925781 306.644531 188.578125 306.296875 185.65625 304.421875 C 183.0625 279.84375 182.652344 253.082031 179.117188 229.4375 C 158.777344 227.84375 137.292969 230.847656 116.226562 229.4375 C 116 258.1875 127.921875 279.148438 129.925781 305.667969 C 128.425781 307.640625 124.445312 306.820312 121.519531 306.914062 C 119.078125 306.988281 117.339844 307.347656 115.914062 306.601562 C 113.746094 305.46875 113.050781 301.125 112.179688 297.890625 C 109.6875 288.675781 105.511719 277.78125 104.394531 268.953125 C 104.089844 277.902344 103.53125 287.4375 103.148438 296.957031 C 103.015625 300.253906 103.316406 303.992188 102.214844 305.667969 C 100.957031 307.574219 92.128906 308.714844 89.449219 306.601562 C 86.628906 304.378906 86.84375 296.320312 86.648438 291.042969 C 85.164062 251.441406 87.121094 203.234375 83.535156 166.898438 C 76.042969 176.597656 77.777344 198.601562 76.683594 216.371094 C 76.308594 222.511719 76.132812 228.855469 73.882812 232.550781 C 71 237.285156 66.097656 239.0625 60.492188 240.953125 C 59.578125 257.773438 54.148438 270.078125 38.699219 272.375 C 37.726562 283.53125 25.398438 292.507812 11.921875 288.867188 C 8.929688 288.058594 7.117188 285.167969 3.828125 284.199219 C 3.25 281.746094 1.664062 279.882812 1.027344 277.042969 C 0.519531 274.796875 -0.386719 270.949219 0.402344 268.332031 C 1.078125 266.09375 5.148438 264.546875 8.1875 262.730469 C 16.773438 257.605469 24.097656 252.109375 29.980469 244.375 C 37.613281 234.335938 41.050781 221.992188 43.992188 205.171875 C 46.773438 189.269531 46.886719 172.601562 52.085938 159.742188 C 56.464844 148.914062 66.140625 135.976562 77.308594 131.742188 C 80.984375 130.347656 83.925781 129.972656 87.269531 131.742188 C 98.308594 130.894531 111.195312 132.59375 122.765625 131.117188 C 123.472656 125.011719 129.277344 118.671875 136.152344 122.71875 C 140.414062 117.074219 145.457031 109.058594 156.078125 111.828125 C 158.015625 99.984375 167.746094 90.292969 181.921875 94.714844 C 183.835938 83.359375 188.492188 69.882812 200.292969 68.578125 C 204.886719 68.070312 209.5 69.578125 212.121094 72.3125 C 214.679688 63.761719 224.273438 51.363281 236.71875 56.757812 C 239.101562 57.789062 240.203125 59.882812 242.324219 61.734375 C 244.8125 55.277344 249.871094 47.53125 258.203125 46.800781 C 265.605469 46.148438 270.632812 50.898438 272.835938 57.066406" fill-rule="evenodd"/></g></svg>